<mxfile host="app.diagrams.net" agent="Mozilla/5.0 (Windows NT 10.0; Win64; x64) AppleWebKit/537.36 (KHTML, like Gecko) Chrome/130.0.0.0 Safari/537.36" version="24.8.4">
  <diagram name="Page-1" id="v1A7Vd8objkBm9WB3Ro6">
    <mxGraphModel dx="1674" dy="772" grid="1" gridSize="10" guides="1" tooltips="1" connect="1" arrows="1" fold="1" page="1" pageScale="1" pageWidth="850" pageHeight="1100" math="0" shadow="0">
      <root>
        <mxCell id="0" />
        <mxCell id="1" parent="0" />
        <mxCell id="jvgKt-wFoHnPmjbdjHrT-1" value="" style="rounded=0;whiteSpace=wrap;html=1;" vertex="1" parent="1">
          <mxGeometry x="120" y="160" width="800" height="400" as="geometry" />
        </mxCell>
        <mxCell id="jvgKt-wFoHnPmjbdjHrT-2" value="" style="rounded=0;whiteSpace=wrap;html=1;" vertex="1" parent="1">
          <mxGeometry x="120" y="160" width="640" height="80" as="geometry" />
        </mxCell>
        <mxCell id="jvgKt-wFoHnPmjbdjHrT-3" value="" style="rounded=0;whiteSpace=wrap;html=1;" vertex="1" parent="1">
          <mxGeometry x="760" y="160" width="160" height="400" as="geometry" />
        </mxCell>
        <mxCell id="jvgKt-wFoHnPmjbdjHrT-4" value="" style="rounded=0;whiteSpace=wrap;html=1;" vertex="1" parent="1">
          <mxGeometry x="120" y="240" width="80" height="320" as="geometry" />
        </mxCell>
        <mxCell id="jvgKt-wFoHnPmjbdjHrT-5" value="" style="rounded=0;whiteSpace=wrap;html=1;" vertex="1" parent="1">
          <mxGeometry x="200" y="240" width="560" height="280" as="geometry" />
        </mxCell>
        <mxCell id="jvgKt-wFoHnPmjbdjHrT-6" value="0.2" style="text;html=1;align=center;verticalAlign=middle;resizable=0;points=[];autosize=1;strokeColor=none;fillColor=none;" vertex="1" parent="1">
          <mxGeometry x="80" y="185" width="40" height="30" as="geometry" />
        </mxCell>
        <mxCell id="jvgKt-wFoHnPmjbdjHrT-7" value="0.8" style="text;html=1;align=center;verticalAlign=middle;resizable=0;points=[];autosize=1;strokeColor=none;fillColor=none;" vertex="1" parent="1">
          <mxGeometry x="80" y="345" width="40" height="30" as="geometry" />
        </mxCell>
        <mxCell id="jvgKt-wFoHnPmjbdjHrT-8" value="0.1" style="text;html=1;align=center;verticalAlign=middle;resizable=0;points=[];autosize=1;strokeColor=none;fillColor=none;" vertex="1" parent="1">
          <mxGeometry x="200" y="530" width="40" height="30" as="geometry" />
        </mxCell>
        <mxCell id="jvgKt-wFoHnPmjbdjHrT-9" value="0.1" style="text;html=1;align=center;verticalAlign=middle;resizable=0;points=[];autosize=1;strokeColor=none;fillColor=none;" vertex="1" parent="1">
          <mxGeometry x="140" y="570" width="40" height="30" as="geometry" />
        </mxCell>
        <mxCell id="jvgKt-wFoHnPmjbdjHrT-10" value="0.7" style="text;html=1;align=center;verticalAlign=middle;resizable=0;points=[];autosize=1;strokeColor=none;fillColor=none;" vertex="1" parent="1">
          <mxGeometry x="460" y="570" width="40" height="30" as="geometry" />
        </mxCell>
        <mxCell id="jvgKt-wFoHnPmjbdjHrT-11" value="0.2" style="text;html=1;align=center;verticalAlign=middle;resizable=0;points=[];autosize=1;strokeColor=none;fillColor=none;" vertex="1" parent="1">
          <mxGeometry x="820" y="570" width="40" height="30" as="geometry" />
        </mxCell>
        <mxCell id="jvgKt-wFoHnPmjbdjHrT-12" value="0.8" style="text;html=1;align=center;verticalAlign=middle;resizable=0;points=[];autosize=1;strokeColor=none;fillColor=none;" vertex="1" parent="1">
          <mxGeometry x="460" y="120" width="40" height="30" as="geometry" />
        </mxCell>
        <mxCell id="jvgKt-wFoHnPmjbdjHrT-13" value="0.2" style="text;html=1;align=center;verticalAlign=middle;resizable=0;points=[];autosize=1;strokeColor=none;fillColor=none;" vertex="1" parent="1">
          <mxGeometry x="820" y="120" width="40" height="30" as="geometry" />
        </mxCell>
        <mxCell id="jvgKt-wFoHnPmjbdjHrT-14" value="1" style="text;html=1;align=center;verticalAlign=middle;resizable=0;points=[];autosize=1;strokeColor=none;fillColor=none;" vertex="1" parent="1">
          <mxGeometry x="925" y="345" width="30" height="30" as="geometry" />
        </mxCell>
        <mxCell id="jvgKt-wFoHnPmjbdjHrT-15" value="0.7" style="text;html=1;align=center;verticalAlign=middle;resizable=0;points=[];autosize=1;strokeColor=none;fillColor=none;" vertex="1" parent="1">
          <mxGeometry x="720" y="345" width="40" height="30" as="geometry" />
        </mxCell>
        <mxCell id="jvgKt-wFoHnPmjbdjHrT-16" value="0.7" style="text;html=1;align=center;verticalAlign=middle;resizable=0;points=[];autosize=1;strokeColor=none;fillColor=none;" vertex="1" parent="1">
          <mxGeometry x="200" y="345" width="40" height="30" as="geometry" />
        </mxCell>
        <mxCell id="jvgKt-wFoHnPmjbdjHrT-17" value="0.7" style="text;html=1;align=center;verticalAlign=middle;resizable=0;points=[];autosize=1;strokeColor=none;fillColor=none;" vertex="1" parent="1">
          <mxGeometry x="460" y="240" width="40" height="30" as="geometry" />
        </mxCell>
        <mxCell id="jvgKt-wFoHnPmjbdjHrT-18" value="0.7" style="text;html=1;align=center;verticalAlign=middle;resizable=0;points=[];autosize=1;strokeColor=none;fillColor=none;" vertex="1" parent="1">
          <mxGeometry x="460" y="490" width="40" height="30" as="geometry" />
        </mxCell>
        <mxCell id="jvgKt-wFoHnPmjbdjHrT-19" value="0.2" style="text;html=1;align=center;verticalAlign=middle;resizable=0;points=[];autosize=1;strokeColor=none;fillColor=none;" vertex="1" parent="1">
          <mxGeometry x="720" y="185" width="40" height="30" as="geometry" />
        </mxCell>
        <mxCell id="jvgKt-wFoHnPmjbdjHrT-20" value="0.1" style="text;html=1;align=center;verticalAlign=middle;resizable=0;points=[];autosize=1;strokeColor=none;fillColor=none;" vertex="1" parent="1">
          <mxGeometry x="720" y="530" width="40" height="30" as="geometry" />
        </mxCell>
        <mxCell id="jvgKt-wFoHnPmjbdjHrT-21" value="0.1" style="text;html=1;align=center;verticalAlign=middle;resizable=0;points=[];autosize=1;strokeColor=none;fillColor=none;" vertex="1" parent="1">
          <mxGeometry x="140" y="240" width="40" height="30" as="geometry" />
        </mxCell>
        <mxCell id="jvgKt-wFoHnPmjbdjHrT-233" value="1" style="text;html=1;align=center;verticalAlign=middle;resizable=0;points=[];autosize=1;strokeColor=none;fillColor=none;" vertex="1" parent="1">
          <mxGeometry x="145" y="80" width="30" height="30" as="geometry" />
        </mxCell>
        <mxCell id="jvgKt-wFoHnPmjbdjHrT-234" value="2" style="text;html=1;align=center;verticalAlign=middle;resizable=0;points=[];autosize=1;strokeColor=none;fillColor=none;" vertex="1" parent="1">
          <mxGeometry x="225" y="80" width="30" height="30" as="geometry" />
        </mxCell>
        <mxCell id="jvgKt-wFoHnPmjbdjHrT-235" value="3" style="text;html=1;align=center;verticalAlign=middle;resizable=0;points=[];autosize=1;strokeColor=none;fillColor=none;" vertex="1" parent="1">
          <mxGeometry x="305" y="80" width="30" height="30" as="geometry" />
        </mxCell>
        <mxCell id="jvgKt-wFoHnPmjbdjHrT-236" value="4" style="text;html=1;align=center;verticalAlign=middle;resizable=0;points=[];autosize=1;strokeColor=none;fillColor=none;" vertex="1" parent="1">
          <mxGeometry x="385" y="80" width="30" height="30" as="geometry" />
        </mxCell>
        <mxCell id="jvgKt-wFoHnPmjbdjHrT-237" value="5" style="text;html=1;align=center;verticalAlign=middle;resizable=0;points=[];autosize=1;strokeColor=none;fillColor=none;" vertex="1" parent="1">
          <mxGeometry x="465" y="80" width="30" height="30" as="geometry" />
        </mxCell>
        <mxCell id="jvgKt-wFoHnPmjbdjHrT-238" value="6" style="text;html=1;align=center;verticalAlign=middle;resizable=0;points=[];autosize=1;strokeColor=none;fillColor=none;" vertex="1" parent="1">
          <mxGeometry x="545" y="80" width="30" height="30" as="geometry" />
        </mxCell>
        <mxCell id="jvgKt-wFoHnPmjbdjHrT-239" value="7" style="text;html=1;align=center;verticalAlign=middle;resizable=0;points=[];autosize=1;strokeColor=none;fillColor=none;" vertex="1" parent="1">
          <mxGeometry x="625" y="80" width="30" height="30" as="geometry" />
        </mxCell>
        <mxCell id="jvgKt-wFoHnPmjbdjHrT-240" value="8" style="text;html=1;align=center;verticalAlign=middle;resizable=0;points=[];autosize=1;strokeColor=none;fillColor=none;" vertex="1" parent="1">
          <mxGeometry x="705" y="80" width="30" height="30" as="geometry" />
        </mxCell>
        <mxCell id="jvgKt-wFoHnPmjbdjHrT-241" value="9" style="text;html=1;align=center;verticalAlign=middle;resizable=0;points=[];autosize=1;strokeColor=none;fillColor=none;" vertex="1" parent="1">
          <mxGeometry x="785" y="80" width="30" height="30" as="geometry" />
        </mxCell>
        <mxCell id="jvgKt-wFoHnPmjbdjHrT-242" value="10" style="text;html=1;align=center;verticalAlign=middle;resizable=0;points=[];autosize=1;strokeColor=none;fillColor=none;" vertex="1" parent="1">
          <mxGeometry x="860" y="80" width="40" height="30" as="geometry" />
        </mxCell>
        <mxCell id="jvgKt-wFoHnPmjbdjHrT-243" value="1" style="text;html=1;align=center;verticalAlign=middle;resizable=0;points=[];autosize=1;strokeColor=none;fillColor=none;" vertex="1" parent="1">
          <mxGeometry x="25" y="180" width="30" height="30" as="geometry" />
        </mxCell>
        <mxCell id="jvgKt-wFoHnPmjbdjHrT-244" value="2" style="text;html=1;align=center;verticalAlign=middle;resizable=0;points=[];autosize=1;strokeColor=none;fillColor=none;" vertex="1" parent="1">
          <mxGeometry x="25" y="220" width="30" height="30" as="geometry" />
        </mxCell>
        <mxCell id="jvgKt-wFoHnPmjbdjHrT-245" value="3" style="text;html=1;align=center;verticalAlign=middle;resizable=0;points=[];autosize=1;strokeColor=none;fillColor=none;" vertex="1" parent="1">
          <mxGeometry x="25" y="260" width="30" height="30" as="geometry" />
        </mxCell>
        <mxCell id="jvgKt-wFoHnPmjbdjHrT-246" value="4" style="text;html=1;align=center;verticalAlign=middle;resizable=0;points=[];autosize=1;strokeColor=none;fillColor=none;" vertex="1" parent="1">
          <mxGeometry x="25" y="300" width="30" height="30" as="geometry" />
        </mxCell>
        <mxCell id="jvgKt-wFoHnPmjbdjHrT-247" value="5" style="text;html=1;align=center;verticalAlign=middle;resizable=0;points=[];autosize=1;strokeColor=none;fillColor=none;" vertex="1" parent="1">
          <mxGeometry x="25" y="340" width="30" height="30" as="geometry" />
        </mxCell>
        <mxCell id="jvgKt-wFoHnPmjbdjHrT-248" value="6" style="text;html=1;align=center;verticalAlign=middle;resizable=0;points=[];autosize=1;strokeColor=none;fillColor=none;" vertex="1" parent="1">
          <mxGeometry x="25" y="380" width="30" height="30" as="geometry" />
        </mxCell>
        <mxCell id="jvgKt-wFoHnPmjbdjHrT-249" value="7" style="text;html=1;align=center;verticalAlign=middle;resizable=0;points=[];autosize=1;strokeColor=none;fillColor=none;" vertex="1" parent="1">
          <mxGeometry x="25" y="420" width="30" height="30" as="geometry" />
        </mxCell>
        <mxCell id="jvgKt-wFoHnPmjbdjHrT-250" value="8" style="text;html=1;align=center;verticalAlign=middle;resizable=0;points=[];autosize=1;strokeColor=none;fillColor=none;" vertex="1" parent="1">
          <mxGeometry x="25" y="460" width="30" height="30" as="geometry" />
        </mxCell>
        <mxCell id="jvgKt-wFoHnPmjbdjHrT-251" value="9" style="text;html=1;align=center;verticalAlign=middle;resizable=0;points=[];autosize=1;strokeColor=none;fillColor=none;" vertex="1" parent="1">
          <mxGeometry x="25" y="500" width="30" height="30" as="geometry" />
        </mxCell>
        <mxCell id="jvgKt-wFoHnPmjbdjHrT-252" value="10" style="text;html=1;align=center;verticalAlign=middle;resizable=0;points=[];autosize=1;strokeColor=none;fillColor=none;" vertex="1" parent="1">
          <mxGeometry x="20" y="540" width="40" height="30" as="geometry" />
        </mxCell>
      </root>
    </mxGraphModel>
  </diagram>
</mxfile>
